<svg width="18" height="18" viewBox="0 0 18 18" fill="none" xmlns="http://www.w3.org/2000/svg">
<rect width="18" height="18" rx="9" fill="#B4B6B7"/>
<path d="M7.00141 11.1372C7.00141 11.1372 7.00141 9.12525 7.00141 8.76689C7.00141 8.22021 6.59814 8.1479 6.59814 8.1479V7.19995C6.59814 7.19995 7.76865 7.27623 7.83685 8.79709C7.83685 9.2357 7.83685 11.1372 7.83685 11.1372H7.00141Z" fill="white"/>
<path d="M8.38867 9.86519C8.38867 9.67528 8.42425 9.49491 8.49542 9.32486C8.56584 9.15562 8.6711 9.00067 8.80899 8.86003C8.94316 8.72733 9.09587 8.62562 9.26636 8.55411C9.43686 8.48339 9.61626 8.44763 9.8038 8.44763C9.99506 8.44763 10.1774 8.48259 10.3501 8.55411C10.5221 8.62562 10.6748 8.72733 10.8075 8.86003C10.9417 8.99511 11.044 9.14767 11.1144 9.3193C11.1841 9.49094 11.2197 9.6721 11.2197 9.86439C11.2197 10.0567 11.1848 10.2386 11.1144 10.4103C11.044 10.5819 10.9417 10.7345 10.8075 10.8696C10.6748 11.0023 10.5221 11.1048 10.3501 11.1755C10.1774 11.2462 9.9958 11.282 9.8038 11.282C9.61626 11.282 9.43612 11.2462 9.26636 11.1755C9.09587 11.1048 8.94316 11.0023 8.80899 10.8696C8.67036 10.7297 8.56584 10.5748 8.49542 10.4047C8.42425 10.2363 8.38867 10.0559 8.38867 9.86519ZM9.2382 9.86042C9.2382 10.0321 9.29379 10.1783 9.40424 10.299C9.5147 10.4198 9.64813 10.4802 9.8038 10.4802C9.9617 10.4802 10.0974 10.4198 10.21 10.299C10.3227 10.1783 10.379 10.0321 10.379 9.86042C10.379 9.68879 10.3227 9.54258 10.21 9.42181C10.0974 9.30103 9.96244 9.24064 9.8038 9.24064C9.64813 9.24064 9.51544 9.30103 9.40424 9.42181C9.29379 9.54179 9.2382 9.68799 9.2382 9.86042Z" fill="white"/>
<path d="M6.08269 8.87668C5.89737 8.64783 5.58899 8.44839 5.29247 8.45872C4.94481 8.47143 4.65125 8.53977 4.42961 8.74239H4.41923V7.27954H3.6001V11.1087H4.41923V10.9228H4.42961C4.60603 11.0666 4.84399 11.1715 5.1709 11.1715C5.53191 11.1715 5.86327 11.061 6.07899 10.8004C6.29544 10.5398 6.40219 10.2926 6.40219 9.86118C6.40219 9.46388 6.26802 9.10552 6.08269 8.87668ZM5.38143 10.3046C5.26875 10.4253 5.13384 10.4857 4.9752 10.4857C4.81953 10.4857 4.68684 10.4253 4.57564 10.3046C4.46519 10.1838 4.40959 10.0376 4.40959 9.86595C4.40959 9.69432 4.46519 9.54811 4.57564 9.42733C4.68609 9.30655 4.81953 9.24616 4.9752 9.24616C5.13309 9.24616 5.26801 9.30655 5.38143 9.42733C5.4941 9.54811 5.55044 9.69432 5.55044 9.86595C5.55044 10.0376 5.4941 10.1838 5.38143 10.3046Z" fill="white"/>
<path d="M13.5854 8.47526V8.68423H13.575C13.3771 8.49115 13.1747 8.40771 12.8537 8.40771C12.495 8.40771 12.1814 8.53564 11.9612 8.81057C11.7411 9.0855 11.6313 9.45579 11.6313 9.92301C11.6313 10.3394 11.7299 10.6723 11.9279 10.9194C12.125 11.1673 12.4164 11.3008 12.7529 11.3008C13.1154 11.3008 13.3882 11.2007 13.575 10.9242H13.5854V11.103C13.5861 11.5662 13.128 11.8014 12.7944 11.7649V12.4601C13.194 12.5213 13.6677 12.4975 14.0005 12.159C14.2807 11.8745 14.3993 11.4637 14.3993 10.7915V8.47526H13.5854ZM13.429 10.3044C13.3163 10.4252 13.1814 10.4856 13.0228 10.4856C12.8671 10.4856 12.7337 10.4252 12.6232 10.3044C12.512 10.1836 12.4571 10.0374 12.4571 9.8658C12.4571 9.69416 12.5127 9.54796 12.6232 9.42718C12.7337 9.3064 12.8671 9.24601 13.0228 9.24601C13.1807 9.24601 13.3163 9.3064 13.429 9.42718C13.5417 9.54796 13.598 9.69416 13.598 9.8658C13.598 10.0374 13.5417 10.1836 13.429 10.3044Z" fill="white"/>
</svg>
