<svg width="18" height="18" viewBox="0 0 18 18" fill="none" xmlns="http://www.w3.org/2000/svg">
<g clip-path="url(#clip0_2_5994)">
<path d="M9 0C13.9706 0 18 4.02943 18 9C18 13.4922 14.7088 17.2155 10.4062 17.8907V11.6016H12.5033L12.9023 9H10.4062V7.31173C10.4062 7.12062 10.4314 6.93081 10.4898 6.75538C10.6218 6.35913 10.9235 6.03623 11.4889 5.93745C11.6055 5.91709 11.7332 5.90625 11.8729 5.90625H13.0078V3.69141C13.0078 3.69141 11.9779 3.51562 10.9932 3.51562C8.93739 3.51562 7.59375 4.76156 7.59375 7.01719V9H5.30859V11.6016H7.59375V17.8907C3.29119 17.2155 0 13.4922 0 9C0 4.02943 4.02943 0 9 0Z" fill="#1877F2"/>
</g>
<defs>
<clipPath id="clip0_2_5994">
<rect width="18" height="18" fill="white"/>
</clipPath>
</defs>
</svg>
