<?xml version="1.0" encoding="utf-8"?>
<!-- Generator: Adobe Illustrator 24.2.0, SVG Export Plug-In . SVG Version: 6.00 Build 0)  -->
<svg version="1.1" id="Layer_1" xmlns="http://www.w3.org/2000/svg" xmlns:xlink="http://www.w3.org/1999/xlink" x="0px" y="0px"
	 viewBox="0 0 92 92" style="enable-background:new 0 0 92 92;" xml:space="preserve">
<style type="text/css">
	.st0{fill:#EC631B;}
	.st1{fill:#FFFFFF;}
</style>
<g>
	<path class="st0" d="M34.4,45.5c0-9.5,4.8-17.9,12.1-23H0.1v46h46.4C39.2,63.4,34.4,55,34.4,45.5"/>
	<path class="st0" d="M62.7,17.5c-6,0-11.6,1.9-16.2,5l0,0v46l0,0c4.6,3.2,10.2,5,16.2,5C78.3,73.4,91,61,91,45.5
		S78.3,17.5,62.7,17.5"/>
	<path class="st1" d="M46.5,22.5L46.5,22.5c-7.3,5.1-12.1,13.5-12.1,23s4.8,17.9,12.1,23l0,0V22.5z"/>
</g>
</svg>
