<svg width="18" height="18" viewBox="0 0 18 18" fill="none" xmlns="http://www.w3.org/2000/svg">
<g clip-path="url(#clip0_2_5996)">
<path d="M7.00002 8.99999C7.00002 10.1045 7.89544 11 9.00003 11C10.1046 11 11 10.1045 11 8.99999C11 7.8954 10.1046 6.99998 9.00003 6.99998C7.89544 6.99998 7.00002 7.8954 7.00002 8.99999Z" fill="#B4B6B7"/>
<path fill-rule="evenodd" clip-rule="evenodd" d="M11.4245 4.11607C10.7918 4.08719 10.602 4.0811 8.99999 4.0811C7.39792 4.0811 7.20815 4.08719 6.57545 4.11607C5.99048 4.14276 5.67278 4.2405 5.46135 4.32265C5.1813 4.43149 4.98143 4.56152 4.77145 4.77147C4.5615 4.98143 4.43147 5.18132 4.32265 5.46135C4.24047 5.67278 4.14274 5.99048 4.11604 6.57545C4.08717 7.20815 4.08108 7.39792 4.08108 8.99999C4.08108 10.602 4.08717 10.7918 4.11604 11.4245C4.14274 12.0094 4.24047 12.3271 4.32265 12.5386C4.43147 12.8186 4.5615 13.0185 4.77145 13.2285C4.98143 13.4384 5.1813 13.5684 5.46135 13.6773C5.67278 13.7595 5.99048 13.8572 6.57545 13.8839C7.20808 13.9127 7.39778 13.9189 8.99999 13.9189C10.6021 13.9189 10.7919 13.9127 11.4245 13.8839C12.0094 13.8572 12.3271 13.7595 12.5386 13.6773C12.8186 13.5684 13.0185 13.4384 13.2285 13.2285C13.4384 13.0185 13.5684 12.8186 13.6773 12.5386C13.7595 12.3271 13.8572 12.0094 13.8839 11.4245C13.9127 10.7918 13.9189 10.602 13.9189 8.99999C13.9189 7.39792 13.9127 7.20815 13.8839 6.57545C13.8572 5.99048 13.7595 5.67278 13.6773 5.46135C13.5684 5.18132 13.4384 4.98143 13.2285 4.77147C13.0185 4.56152 12.8186 4.43149 12.5386 4.32265C12.3271 4.2405 12.0094 4.14276 11.4245 4.11607ZM5.91894 8.99999C5.91894 7.29834 7.29837 5.9189 9.00003 5.9189C10.7016 5.9189 12.0811 7.29834 12.0811 8.99999C12.0811 10.7016 10.7016 12.081 9.00003 12.081C7.29837 12.081 5.91894 10.7016 5.91894 8.99999ZM12.9228 5.79717C12.9228 6.19483 12.6004 6.51716 12.2028 6.51716C11.8051 6.51716 11.4828 6.19483 11.4828 5.79717C11.4828 5.39953 11.8051 5.07719 12.2028 5.07719C12.6004 5.07719 12.9228 5.39953 12.9228 5.79717Z" fill="#B4B6B7"/>
<path fill-rule="evenodd" clip-rule="evenodd" d="M18 9C18 13.9706 13.9706 18 9 18C4.02944 18 0 13.9706 0 9C0 4.02944 4.02944 0 9 0C13.9706 0 18 4.02944 18 9ZM6.52619 3.03612C7.16615 3.00691 7.37048 3 8.99999 3C10.6295 3 10.8338 3.00691 11.4737 3.03612C12.1124 3.06525 12.5485 3.16666 12.9302 3.315C13.3247 3.46833 13.6593 3.6735 13.9929 4.00706C14.3265 4.3406 14.5316 4.67522 14.685 5.06976C14.8333 5.45139 14.9347 5.88756 14.9638 6.52619C14.993 7.16615 14.9999 7.37048 14.9999 8.99999C14.9999 10.6295 14.993 10.8338 14.9638 11.4737C14.9347 12.1124 14.8333 12.5485 14.685 12.9302C14.5316 13.3247 14.3265 13.6593 13.9929 13.9929C13.6593 14.3265 13.3247 14.5316 12.9302 14.685C12.5485 14.8333 12.1124 14.9347 11.4737 14.9638C10.8338 14.993 10.6295 14.9999 8.99999 14.9999C7.37048 14.9999 7.16615 14.993 6.52619 14.9638C5.88756 14.9347 5.45139 14.8333 5.06974 14.685C4.67519 14.5316 4.34058 14.3265 4.00704 13.9929C3.67348 13.6593 3.4683 13.3247 3.31498 12.9302C3.16664 12.5485 3.06523 12.1124 3.03609 11.4737C3.00689 10.8338 3 10.6295 3 8.99999C3 7.37048 3.00689 7.16615 3.03609 6.52619C3.06523 5.88756 3.16664 5.45139 3.31498 5.06976C3.4683 4.67522 3.67348 4.3406 4.00704 4.00706C4.34058 3.6735 4.67519 3.46833 5.06974 3.315C5.45139 3.16666 5.88756 3.06525 6.52619 3.03612Z" fill="#B4B6B7"/>
</g>
<defs>
<clipPath id="clip0_2_5996">
<rect width="18" height="18" fill="white"/>
</clipPath>
</defs>
</svg>
