<svg width="18" height="18" viewBox="0 0 18 18" fill="none" xmlns="http://www.w3.org/2000/svg">
<path fill-rule="evenodd" clip-rule="evenodd" d="M18 9C18 13.9706 13.9706 18 9 18C4.02944 18 0 13.9706 0 9C0 4.02944 4.02944 0 9 0C13.9706 0 18 4.02944 18 9ZM13.8436 7.43226C13.8436 10.5489 11.4707 14.145 7.13086 14.145C5.80005 14.145 4.55732 13.7536 3.52496 13.0784C3.71088 13.1029 3.89681 13.1126 4.08762 13.1126C5.19336 13.1126 6.21104 12.7359 7.01833 12.1048C5.98598 12.0852 5.11508 11.4051 4.81663 10.4657C4.96341 10.4951 5.11019 10.5097 5.26186 10.5097C5.47714 10.5097 5.68752 10.4804 5.88323 10.4266C4.80195 10.2064 3.98977 9.25722 3.98977 8.11234V8.08298C4.30779 8.25912 4.66985 8.36676 5.05637 8.37654C4.42032 7.95577 4.00445 7.23166 4.00445 6.41458C4.00445 5.98403 4.12187 5.57794 4.32247 5.23056C5.48692 6.65922 7.22382 7.59861 9.18578 7.69646C9.14175 7.52522 9.12218 7.34419 9.12218 7.15827C9.12218 5.85682 10.179 4.8 11.4804 4.8C12.1605 4.8 12.7721 5.08378 13.2027 5.54369C13.7409 5.43605 14.2448 5.24034 14.6998 4.97124C14.5237 5.52412 14.1518 5.98403 13.6626 6.27759C14.1421 6.21888 14.5971 6.09167 15.0178 5.90575C14.6998 6.38033 14.2986 6.79621 13.8387 7.12891C13.8436 7.22677 13.8436 7.32951 13.8436 7.43226Z" fill="#1DA1F2"/>
</svg>
